<svg aria-hidden="true" style="position: absolute; width: 0; height: 0; overflow: hidden;" version="1.1" xmlns="http://www.w3.org/2000/svg" xmlns:xlink="http://www.w3.org/1999/xlink">
<defs>
<symbol id="icon-instagram" viewBox="0 0 34 32">
<path  d="M33.752 9.342c0-1.789-0.398-2.783-0.795-3.975-0.398-0.994-0.994-1.988-1.789-2.783-0.795-0.994-1.789-1.391-2.783-1.789s-2.186-0.596-3.975-0.795c-1.789 0-2.385 0-6.758 0-4.174 0-4.77 0-6.559 0s-2.783 0.398-3.975 0.795c-0.994 0.397-1.988 0.994-2.783 1.789-0.795 0.994-1.391 1.789-1.789 2.981-0.397 0.994-0.596 2.186-0.795 3.776 0 1.789 0 2.385 0 6.559 0 4.373 0 4.969 0 6.559 0 1.789 0.397 2.782 0.795 3.975 0.397 0.994 0.994 1.988 1.789 2.782 0.994 0.994 1.789 1.391 2.783 1.789s2.186 0.596 3.975 0.795c1.789 0 2.186 0 6.559 0s4.969 0 6.559 0c1.789 0 2.783-0.398 3.975-0.795 0.994-0.397 1.988-0.994 2.783-1.789 0.994-0.994 1.391-1.789 1.789-2.782s0.596-2.186 0.795-3.975 0-2.186 0-6.559c0-4.373 0.199-4.77 0.199-6.559zM17.652 24.248c-4.571 0-8.149-3.776-8.149-8.149 0-4.571 3.776-8.149 8.149-8.149 4.571 0 8.149 3.776 8.149 8.149 0.199 4.373-3.578 8.149-8.149 8.149zM26.199 9.342c-0.994 0-1.988-0.795-1.988-1.988 0-0.994 0.795-1.988 1.988-1.988 0.994 0 1.988 0.795 1.988 1.988s-0.795 1.988-1.988 1.988z"></path>
<path d="M23.019 15.903c0 2.981-2.385 5.366-5.366 5.366s-5.366-2.385-5.366-5.366c0-2.981 2.584-5.168 5.366-5.168 2.981 0 5.366 2.385 5.366 5.168z"></path>
</symbol>
<symbol id="icon-linkedin" viewBox="0 0 34 32">
<path  d="M29.73 0h-27.45c-1.258 0-2.28 0.993-2.28 2.212v26.259c0 1.219 1.022 2.212 2.28 2.212h27.45c1.258 0 2.287-0.993 2.287-2.212v-26.259c0-1.219-1.029-2.212-2.287-2.212zM9.677 26.3h-4.745v-14.643h4.753v14.643h-0.007zM7.304 9.657c-1.522 0-2.751-1.185-2.751-2.637s1.229-2.637 2.751-2.637c1.515 0 2.751 1.185 2.751 2.637 0 1.459-1.229 2.637-2.751 2.637zM27.465 26.3h-4.745v-7.123c0-1.699-0.036-3.883-2.466-3.883-2.473 0-2.852 1.849-2.852 3.76v7.246h-4.745v-14.643h4.552v2h0.064c0.636-1.151 2.187-2.363 4.495-2.363 4.803 0 5.696 3.034 5.696 6.979v8.027z"></path>
</symbol>
<symbol id="icon-youtube" viewBox="0 0 46 32">
<path d="M18.259 21.911v-12.827c4.554 2.143 8.080 4.213 12.252 6.444-3.44 1.908-7.698 4.049-12.252 6.383zM43.637 2.705c-0.785-1.035-2.124-1.84-3.55-2.107-4.189-0.796-30.325-0.798-34.512 0-1.143 0.214-2.161 0.732-3.035 1.537-3.684 3.419-2.53 21.755-1.642 24.725 0.373 1.286 0.856 2.213 1.464 2.822 0.783 0.805 1.856 1.359 3.087 1.607 3.449 0.714 21.22 1.112 34.564 0.107 1.23-0.214 2.318-0.786 3.176-1.625 3.406-3.405 3.174-22.771 0.446-27.066z"></path>
</symbol>
<symbol id="icon-twitter" viewBox="0 0 36 32">
<path  d="M31.269 7.696c0.022 0.338 0.022 0.676 0.022 1.013 0 10.301-7.187 22.17-20.323 22.17-4.047 0-7.806-1.279-10.969-3.498 0.575 0.072 1.128 0.096 1.725 0.096 3.339 0 6.413-1.23 8.868-3.329-3.14-0.072-5.772-2.316-6.678-5.404 0.442 0.072 0.885 0.121 1.349 0.121 0.641 0 1.283-0.097 1.88-0.265-3.273-0.724-5.728-3.86-5.728-7.647v-0.096c0.951 0.579 2.057 0.941 3.229 0.989-1.924-1.399-3.184-3.788-3.184-6.489 0-1.447 0.354-2.774 0.973-3.932 3.516 4.728 8.801 7.816 14.728 8.154-0.111-0.579-0.177-1.182-0.177-1.785 0-4.294 3.184-7.792 7.143-7.792 2.057 0 3.914 0.941 5.219 2.461 1.614-0.338 3.162-0.989 4.533-1.882-0.531 1.809-1.659 3.329-3.14 4.294 1.437-0.169 2.831-0.603 4.113-1.206-0.973 1.544-2.189 2.919-3.582 4.029z"></path>
</symbol>
<symbol id="icon-facebook" viewBox="0 0 18 32">
<path  d="M15.79 17.426l0.876-5.607h-5.479v-3.638c0-1.534 0.765-3.029 3.219-3.029h2.491v-4.773c0 0-2.26-0.379-4.421-0.379-4.512 0-7.461 2.685-7.461 7.546v4.273h-5.015v5.607h5.015v13.553h6.173v-13.553h4.602z"></path>
</symbol>
<symbol id="icon-faq-arrow">
  <path d="M12 11.025.671 1.001M.67 21.025 12 11.001" stroke="#FCD54C"/>
</symbol>
</defs>
</svg>
